<svg width="12" height="14" viewBox="0 0 12 14" fill="none" xmlns="http://www.w3.org/2000/svg">
<path d="M5.66367 12.4219L6 12.7277L6.33633 12.4219C7.05539 11.7683 8.08945 10.816 9.02268 9.70896C10.183 8.33258 11.1667 6.73886 11.1667 5.22812C11.1667 2.80082 8.87663 0.730145 6 0.730145C3.1234 0.730145 0.833333 2.80082 0.833333 5.22812C0.833333 6.73886 1.81696 8.33257 2.97728 9.70895C3.91053 10.816 4.94462 11.7683 5.66367 12.4219ZM5.53426 12.68L5.53415 12.6799C4.81433 12.0268 3.68797 11.0042 2.68939 9.8196L2.3071 10.1419L2.68938 9.8196C1.5166 8.42842 0.5 6.7929 0.5 5.22812C0.5 2.73637 2.87486 0.5 6 0.5C9.12512 0.5 11.5 2.73637 11.5 5.22812C11.5 6.79291 10.4834 8.42842 9.31065 9.8196C8.31202 11.0041 7.18564 12.0268 6.46584 12.6799C6.46583 12.6799 6.46582 12.6799 6.46581 12.68L6.46165 12.6837C6.33991 12.7942 6.22852 12.8952 6.13235 12.984C6.10362 13.0105 6.05659 13.0316 6 13.0316C5.94341 13.0316 5.89638 13.0105 5.86765 12.984C5.77485 12.8983 5.6678 12.8012 5.55105 12.6952L5.53426 12.68ZM7.16667 5.53565C7.16667 6.07158 6.68301 6.57333 6 6.57333C5.31699 6.57333 4.83333 6.07158 4.83333 5.53565C4.83333 4.99972 5.31699 4.49797 6 4.49797C6.68301 4.49797 7.16667 4.99972 7.16667 5.53565Z" stroke="#909090"/>
</svg>
