<svg width="30" height="30" viewBox="0 0 30 30" fill="none" xmlns="http://www.w3.org/2000/svg">
<path d="M5.11121 29.3627H24.349C25.6245 29.3627 26.8478 28.9049 27.7498 28.0899C28.6517 27.275 29.1584 26.1697 29.1584 25.0172V7.63547C29.1584 6.86715 28.8206 6.13029 28.2193 5.58701C27.618 5.04372 26.8025 4.73851 25.9521 4.73851H22.7458V1.84155C22.7458 1.45739 22.5769 1.08896 22.2763 0.817317C21.9756 0.545674 21.5679 0.393066 21.1427 0.393066C20.7175 0.393066 20.3097 0.545674 20.0091 0.817317C19.7085 1.08896 19.5395 1.45739 19.5395 1.84155V4.73851H9.92065V1.84155C9.92065 1.45739 9.75175 1.08896 9.4511 0.817317C9.15045 0.545674 8.74269 0.393066 8.3175 0.393066C7.89232 0.393066 7.48456 0.545674 7.18391 0.817317C6.88326 1.08896 6.71435 1.45739 6.71435 1.84155V4.73851H3.50806C2.65769 4.73851 1.84216 5.04372 1.24086 5.58701C0.639563 6.13029 0.301758 6.86715 0.301758 7.63547V25.0172C0.301758 26.1697 0.808466 27.275 1.71041 28.0899C2.61236 28.9049 3.83566 29.3627 5.11121 29.3627ZM3.50806 15.6021C3.50806 15.41 3.59251 15.2258 3.74283 15.09C3.89316 14.9542 4.09704 14.8779 4.30963 14.8779H25.1506C25.3632 14.8779 25.567 14.9542 25.7174 15.09C25.8677 15.2258 25.9521 15.41 25.9521 15.6021V25.0172C25.9521 25.4014 25.7832 25.7698 25.4826 26.0415C25.1819 26.3131 24.7742 26.4657 24.349 26.4657H5.11121C4.68602 26.4657 4.27826 26.3131 3.97761 26.0415C3.67696 25.7698 3.50806 25.4014 3.50806 25.0172V15.6021Z" fill="#AAAAAA"/>
</svg>
