<svg width="14" height="10" viewBox="0 0 14 10" fill="none" xmlns="http://www.w3.org/2000/svg">
<path d="M8.33337 1.39941H3.00001C2.37875 1.39941 2.06795 1.39941 1.82292 1.49305C1.49622 1.61791 1.23682 1.85753 1.10149 2.15895C1 2.38502 1 2.67161 1 3.24478C2.10457 3.24478 3.00001 4.07063 3.00001 5.08975C3.00001 6.1088 2.10457 6.9351 1 6.9351C1 7.50829 1 7.79485 1.10149 8.02095C1.23682 8.32234 1.49622 8.56179 1.82292 8.68665C2.06795 8.78026 2.37875 8.78032 3.00001 8.78032H8.33337M8.33337 1.39941H11.0001C11.6213 1.39941 11.9319 1.39941 12.177 1.49305C12.5037 1.61791 12.7632 1.85753 12.8985 2.15895C13 2.38501 13 2.67161 13 3.24478C11.8954 3.24478 11.0001 4.07075 11.0001 5.08987C11.0001 6.10899 11.8954 6.9351 13 6.9351C13 7.50829 13 7.79485 12.8985 8.02095C12.7632 8.32234 12.5037 8.56179 12.177 8.68665C11.9319 8.78026 11.6213 8.78032 11.0001 8.78032H8.33337M8.33337 1.39941V8.78032" stroke="#909090" stroke-linecap="round" stroke-linejoin="round"/>
</svg>
