<svg width="14" height="13" viewBox="0 0 14 13" fill="none" xmlns="http://www.w3.org/2000/svg">
<path d="M3.66667 5.56332H10.3333M3.66667 8.02361H7M3.66667 1.25781V2.48796M10.3333 1.25781V2.48796M3.13333 12.3291H10.8667C11.6134 12.3291 11.9868 12.3291 12.272 12.195C12.5229 12.0771 12.7269 11.8889 12.8547 11.6575C13 11.3943 13 11.0498 13 10.3609V4.45619C13 3.76724 13 3.42277 12.8547 3.15963C12.7269 2.92816 12.5229 2.73997 12.272 2.62204C11.9868 2.48796 11.6134 2.48796 10.8667 2.48796H3.13333C2.3866 2.48796 2.01323 2.48796 1.72801 2.62204C1.47713 2.73997 1.27315 2.92816 1.14533 3.15963C1 3.42277 1 3.76724 1 4.45619V10.3609C1 11.0498 1 11.3943 1.14533 11.6575C1.27315 11.8889 1.47713 12.0771 1.72801 12.195C2.01323 12.3291 2.38659 12.3291 3.13333 12.3291Z" stroke="#909090" stroke-linecap="round" stroke-linejoin="round"/>
</svg>
