<svg width="40" height="40" viewBox="0 0 40 40" fill="none" xmlns="http://www.w3.org/2000/svg">
<path d="M2.54 0.48877H37.1112C38.2831 0.48877 39.3387 1.54439 39.3387 2.71627V37.2875C39.3387 38.4594 38.2831 39.515 37.1112 39.515H2.54C1.36812 39.515 0.3125 38.4594 0.3125 37.2875V2.71627C0.3125 1.54439 1.36812 0.48877 2.54 0.48877ZM28.0269 22.4019H33.4175L33.6519 17.2456H28.0269V13.4375C28.0269 11.9731 28.3194 11.1519 30.1944 11.1519H33.4756L33.5938 6.34627C33.5938 6.34627 32.1294 6.1119 30.02 6.1119C24.8637 6.1119 22.5781 9.33502 22.5781 12.7925V17.2456H18.77V22.4019H22.5781V36.6988H28.0269V22.4019Z" fill="white"/>
</svg>
