<svg width="50" height="50" viewBox="0 0 50 50" fill="none" xmlns="http://www.w3.org/2000/svg">
<path d="M40.4314 24.9314C40.6249 10.6554 34.9071 8.80775 21.8671 9.6005C12.8846 8.90762 9.35774 15.7116 9.3328 23.7578C8.84592 31.6355 11.2741 41.5918 21.0806 40.7553C33.3216 40.5369 40.9995 39.2946 40.4314 24.9314ZM19.0269 0.362068C33.0469 -0.942551 49.2766 1.06744 49.4701 18.6143C49.9632 26.6916 50.2254 35.3496 46.2679 42.6779C42.0544 49.8439 35.0319 49.5443 27.7285 49.7129C21.3053 49.9688 14.6824 50.5244 8.49011 48.4207C2.17924 46.236 0.462625 41.4732 0.599956 35.2434C0.381481 29.8814 0.163 24.5319 0.256638 19.1636C0.568744 6.44194 6.1243 0.0686865 19.0269 0.362068Z" fill="white"/>
<path d="M24.6133 30.0064C17.6408 29.7193 19.5946 19.2511 25.9554 19.5819C32.1664 21.4483 31.1614 29.8503 24.6133 30.0064Z" fill="white"/>
<path d="M26.5603 12.3097C36.5978 11.854 37.6901 16.5418 37.6839 25.3808C37.7588 33.402 36.1733 37.1286 27.5403 37.5843C20.5116 38.5955 13.0023 38.8639 12.4592 29.8065C11.9036 24.1948 11.0796 16.1174 17.0909 13.1773C20.0871 12.1599 23.5766 12.603 26.5603 12.3097ZM24.5753 32.5406C34.9186 32.653 35.599 16.4357 24.6253 17.1785C15.6801 18.0525 14.7626 32.241 24.5753 32.5406ZM32.5903 18.9514C35.262 19.3009 34.8874 15.3184 32.453 15.4307C30.0934 15.4932 30.3743 18.8889 32.5903 18.9514Z" fill="white"/>
</svg>
