<svg width="60" height="60" viewBox="0 0 60 60" fill="none" xmlns="http://www.w3.org/2000/svg">
<path d="M55.3125 0H4.6875C2.09766 0 0 2.09766 0 4.6875V55.3125C0 57.9023 2.09766 60 4.6875 60H55.3125C57.9023 60 60 57.9023 60 55.3125V4.6875C60 2.09766 57.9023 0 55.3125 0ZM21.6094 42.5508H15.7617V23.8359H21.6094V42.5508ZM18.5273 21.4922H18.4805C16.3594 21.4922 14.9883 20.0625 14.9883 18.2461C14.9883 16.3945 16.4062 15 18.5625 15C20.7187 15 22.043 16.3945 22.0898 18.2461C22.1016 20.0508 20.7305 21.4922 18.5273 21.4922ZM45 42.5508H38.3672V32.8711C38.3672 30.3398 37.3359 28.6055 35.0508 28.6055C33.3047 28.6055 32.332 29.7773 31.8867 30.9023C31.7227 31.3008 31.7461 31.8633 31.7461 32.4375V42.5508H25.1719C25.1719 42.5508 25.2539 25.3945 25.1719 23.8359H31.7461V26.7773C32.1328 25.4883 34.2305 23.6602 37.582 23.6602C41.7422 23.6602 45 26.3555 45 32.1445V42.5508Z" fill="white"/>
</svg>
