<svg width="60" height="60" viewBox="0 0 60 60" fill="none" xmlns="http://www.w3.org/2000/svg">
<path d="M30 0.9375C13.9444 0.9375 0.9375 13.9462 0.9375 30C0.9375 46.0538 13.9462 59.0625 30 59.0625C46.0556 59.0625 59.0625 46.0538 59.0625 30C59.0625 13.9462 46.0538 0.9375 30 0.9375ZM44.2744 20.8481L39.5044 43.3256C39.1519 44.9194 38.2031 45.3056 36.8794 44.5556L29.6137 39.2006L26.1094 42.5756C25.7231 42.9619 25.395 43.29 24.645 43.29L25.1606 35.895L38.625 23.73C39.2119 23.2144 38.4956 22.9219 37.7213 23.4375L21.0806 33.9131L13.9088 31.6744C12.3506 31.1831 12.315 30.1162 14.2369 29.3662L42.2569 18.5606C43.5581 18.0919 44.6944 18.8775 44.2725 20.8463L44.2744 20.8481Z" fill="white"/>
</svg>
