<svg width="60" height="42" viewBox="0 0 60 42" fill="none" xmlns="http://www.w3.org/2000/svg">
<path fill-rule="evenodd" clip-rule="evenodd" d="M23.9653 28.7583V11.9229C29.9419 14.7352 34.5708 17.4519 40.0454 20.3809C35.53 22.885 29.9419 25.6947 23.9653 28.7583ZM57.273 3.54985C56.2421 2.19157 54.485 1.13427 52.6143 0.784227C47.1158 -0.259923 12.813 -0.262893 7.31746 0.784227C5.81733 1.06545 4.48151 1.7452 3.334 2.80132C-1.50109 7.28902 0.0139985 31.3551 1.17944 35.2535C1.66952 36.9408 2.30307 38.1578 3.10095 38.9566C4.12893 40.0127 5.5364 40.7399 7.15307 41.066C11.6804 42.0024 35.0041 42.526 52.5186 41.2066C54.1323 40.9254 55.5607 40.1748 56.6873 39.0738C61.1578 34.604 60.853 9.1864 57.273 3.54985Z" fill="white"/>
</svg>
